<svg width="42" height="34" viewBox="0 0 42 34" fill="none" xmlns="http://www.w3.org/2000/svg">
<path d="M6.63158 0H35.3684C37.1272 0 38.814 0.716427 40.0577 1.99167C41.3013 3.26692 42 4.99653 42 6.8V27.2C42 29.0035 41.3013 30.7331 40.0577 32.0083C38.814 33.2836 37.1272 34 35.3684 34H6.63158C4.87277 34 3.18601 33.2836 1.94234 32.0083C0.698682 30.7331 0 29.0035 0 27.2V6.8C0 4.99653 0.698682 3.26692 1.94234 1.99167C3.18601 0.716427 4.87277 0 6.63158 0ZM6.63158 2.26667C5.52632 2.26667 4.55368 2.652 3.80211 3.332L21 14.7333L38.1979 3.332C37.4463 2.652 36.4737 2.26667 35.3684 2.26667H6.63158ZM21 17.476L2.49789 5.168C2.32105 5.66667 2.21053 6.23333 2.21053 6.8V27.2C2.21053 28.4023 2.67631 29.5554 3.50542 30.4055C4.33453 31.2557 5.45904 31.7333 6.63158 31.7333H35.3684C36.541 31.7333 37.6655 31.2557 38.4946 30.4055C39.3237 29.5554 39.7895 28.4023 39.7895 27.2V6.8C39.7895 6.23333 39.6789 5.66667 39.5021 5.168L21 17.476Z" fill="white"/>
</svg>
