<svg width="44" height="44" viewBox="0 0 44 44" fill="none" xmlns="http://www.w3.org/2000/svg">
<path d="M1 22C1 12.1013 1 7.14968 4.07484 4.07484C7.14968 1 12.0991 1 22 1C31.8987 1 36.8503 1 39.9252 4.07484C43 7.14968 43 12.0991 43 22C43 31.8987 43 36.8503 39.9252 39.9252C36.8503 43 31.9009 43 22 43C12.1013 43 7.14968 43 4.07484 39.9252C1 36.8503 1 31.9009 1 22Z" stroke="white" stroke-width="1.68" stroke-linecap="round" stroke-linejoin="round"/>
<path d="M34.1757 9.84229H34.1536M31.9475 22.0002C31.9475 24.6384 30.8994 27.1685 29.034 29.034C27.1685 30.8995 24.6383 31.9475 22.0001 31.9475C19.3619 31.9475 16.8317 30.8995 14.9663 29.034C13.1008 27.1685 12.0527 24.6384 12.0527 22.0002C12.0527 19.362 13.1008 16.8318 14.9663 14.9663C16.8317 13.1008 19.3619 12.0528 22.0001 12.0528C24.6383 12.0528 27.1685 13.1008 29.034 14.9663C30.8994 16.8318 31.9475 19.362 31.9475 22.0002Z" stroke="white" stroke-width="1.68" stroke-linecap="round" stroke-linejoin="round"/>
</svg>
