<svg width="44" height="44" viewBox="0 0 44 44" fill="none" xmlns="http://www.w3.org/2000/svg">
<path d="M43 12.6667V31.3333C43 34.4275 41.7708 37.395 39.5829 39.5829C37.395 41.7708 34.4275 43 31.3333 43H12.6667C9.57247 43 6.60501 41.7708 4.41709 39.5829C2.22916 37.395 1 34.4275 1 31.3333V12.6667C1 9.57247 2.22916 6.60501 4.41709 4.41709C6.60501 2.22916 9.57247 1 12.6667 1H31.3333C34.4275 1 37.395 2.22916 39.5829 4.41709C41.7708 6.60501 43 9.57247 43 12.6667Z" stroke="white" stroke-width="1.68" stroke-linecap="round" stroke-linejoin="round"/>
<path d="M17.3335 22C15.949 22 14.5957 22.4105 13.4445 23.1797C12.2934 23.9489 11.3962 25.0421 10.8663 26.3212C10.3365 27.6003 10.1979 29.0078 10.468 30.3656C10.7381 31.7235 11.4048 32.9708 12.3838 33.9498C13.3627 34.9287 14.61 35.5954 15.9679 35.8655C17.3257 36.1356 18.7332 35.997 20.0123 35.4672C21.2914 34.9373 22.3846 34.0401 23.1538 32.889C23.923 31.7378 24.3335 30.3845 24.3335 29V8C25.1105 10.3333 28.0668 15 33.6668 15" stroke="white" stroke-width="1.68" stroke-linecap="round" stroke-linejoin="round"/>
</svg>
