<svg width="20" height="20" viewBox="0 0 20 20" fill="none" xmlns="http://www.w3.org/2000/svg">
<path d="M17.1001 2.91005C16.1832 1.98416 15.0911 1.25002 13.8876 0.750416C12.6841 0.250812 11.3932 -0.00426317 10.0901 5.38951e-05C4.6301 5.38951e-05 0.180098 4.45005 0.180098 9.91005C0.180098 11.6601 0.640098 13.3601 1.5001 14.8601L0.100098 20.0001L5.3501 18.6201C6.8001 19.4101 8.4301 19.8301 10.0901 19.8301C15.5501 19.8301 20.0001 15.3801 20.0001 9.92005C20.0001 7.27005 18.9701 4.78005 17.1001 2.91005ZM10.0901 18.1501C8.6101 18.1501 7.1601 17.7501 5.8901 17.0001L5.5901 16.8201L2.4701 17.6401L3.3001 14.6001L3.1001 14.2901C2.27765 12.9771 1.84102 11.4593 1.8401 9.91005C1.8401 5.37005 5.5401 1.67005 10.0801 1.67005C12.2801 1.67005 14.3501 2.53005 15.9001 4.09005C16.6677 4.85392 17.276 5.7626 17.6897 6.76338C18.1034 7.76417 18.3143 8.83714 18.3101 9.92005C18.3301 14.4601 14.6301 18.1501 10.0901 18.1501ZM14.6101 11.9901C14.3601 11.8701 13.1401 11.2701 12.9201 11.1801C12.6901 11.1001 12.5301 11.0601 12.3601 11.3001C12.1901 11.5501 11.7201 12.1101 11.5801 12.2701C11.4401 12.4401 11.2901 12.4601 11.0401 12.3301C10.7901 12.2101 9.9901 11.9401 9.0501 11.1001C8.3101 10.4401 7.8201 9.63005 7.6701 9.38005C7.5301 9.13005 7.6501 9.00005 7.7801 8.87005C7.8901 8.76005 8.0301 8.58005 8.1501 8.44005C8.2701 8.30005 8.3201 8.19005 8.4001 8.03005C8.4801 7.86005 8.4401 7.72005 8.3801 7.60005C8.3201 7.48005 7.8201 6.26005 7.6201 5.76005C7.4201 5.28005 7.2101 5.34005 7.0601 5.33005H6.5801C6.4101 5.33005 6.1501 5.39005 5.9201 5.64005C5.7001 5.89005 5.0601 6.49005 5.0601 7.71005C5.0601 8.93005 5.9501 10.1101 6.0701 10.2701C6.1901 10.4401 7.8201 12.9401 10.3001 14.0101C10.8901 14.2701 11.3501 14.4201 11.7101 14.5301C12.3001 14.7201 12.8401 14.6901 13.2701 14.6301C13.7501 14.5601 14.7401 14.0301 14.9401 13.4501C15.1501 12.8701 15.1501 12.3801 15.0801 12.2701C15.0101 12.1601 14.8601 12.1101 14.6101 11.9901Z" fill="white"/>
</svg>
